<svg xmlns="http://www.w3.org/2000/svg" viewBox="0 0 32 32"><path d="M15.68 28.25c1.28 0 2.43-.22 3.44-.65a7.287 7.287 0 002.57-1.82c.7-.78 1.23-1.71 1.6-2.79.37-1.08.55-2.27.55-3.57V9.65h4.18v9.77c0 1.79-.29 3.45-.86 4.98a11.59 11.59 0 01-2.45 3.97c-1.06 1.12-2.36 2-3.89 2.63-1.53.63-3.25.95-5.15.95-1.91 0-3.62-.32-5.15-.95s-2.83-1.51-3.9-2.63c-1.07-1.12-1.89-2.44-2.46-3.97s-.86-3.19-.86-4.98V.55h4.18v18.84c0 1.3.18 2.49.55 3.57.37 1.08.9 2.01 1.6 2.79.7.78 1.56 1.39 2.58 1.83 1.03.45 2.18.67 3.47.67z"/><path fill="#00A99D" d="M28.69 2.82c0 .37-.08.72-.23 1.05-.15.32-.35.61-.61.87-.25.25-.55.45-.89.59-.34.15-.7.22-1.07.22-.38 0-.73-.07-1.05-.22-.32-.14-.61-.34-.86-.59-.25-.25-.44-.54-.58-.87s-.22-.67-.22-1.05.07-.73.22-1.07c.14-.34.34-.63.58-.89a2.692 2.692 0 011.91-.81c.37 0 .73.07 1.07.22s.64.34.89.59c.25.25.46.55.61.89.15.34.23.7.23 1.07z"/></svg>