<svg xmlns="http://www.w3.org/2000/svg" viewBox="0 0 96.54 16.24"><path d="M6.28 14.36c.65 0 1.24-.11 1.75-.33a3.7 3.7 0 001.3-.92c.36-.4.63-.87.81-1.42.19-.55.28-1.15.28-1.81V.29h2.12v9.58c0 .91-.15 1.75-.43 2.53-.29.78-.7 1.45-1.24 2.02s-1.2 1.01-1.97 1.34-1.65.48-2.62.48c-.97 0-1.84-.16-2.62-.48s-1.44-.77-1.98-1.34c-.54-.57-.96-1.24-1.25-2.02S0 10.78 0 9.87V.29h2.12v9.57c0 .66.09 1.26.28 1.81.19.55.46 1.02.81 1.42.36.4.79.71 1.31.93.52.22 1.11.34 1.76.34z"/><path fill="#00A99D" d="M18.17 1.41c0 .19-.04.37-.12.53-.08.17-.18.31-.31.44s-.28.23-.45.3c-.17.07-.35.11-.54.11-.19 0-.37-.04-.53-.11-.17-.07-.31-.17-.43-.3-.12-.13-.22-.28-.3-.44s-.11-.34-.11-.53a1.408 1.408 0 01.41-.99c.12-.13.27-.23.43-.3s.34-.12.53-.12.37.04.54.11.32.17.45.3c.13.13.23.28.31.45.08.18.12.36.12.55z"/><path d="M28.72 6.89c-.06.08-.12.14-.18.19s-.14.07-.24.07c-.11 0-.23-.04-.36-.14-.13-.09-.3-.19-.49-.3a3.489 3.489 0 00-1.76-.44c-.55 0-1.03.1-1.45.29s-.77.47-1.05.84-.49.81-.64 1.33c-.14.52-.21 1.1-.21 1.75 0 .67.08 1.27.23 1.8.15.52.37.96.65 1.32s.62.63 1.02.81c.4.19.85.28 1.35.28.48 0 .87-.06 1.18-.17s.56-.24.76-.38c.2-.14.37-.27.51-.38.14-.11.27-.17.4-.17.16 0 .29.06.37.19l.55.71c-.24.3-.52.56-.83.77a5.305 5.305 0 01-2.12.84c-.39.07-.78.1-1.19.1-.7 0-1.34-.13-1.94-.38a4.44 4.44 0 01-1.56-1.12c-.44-.49-.78-1.09-1.03-1.8s-.37-1.52-.37-2.43c0-.83.12-1.59.35-2.3s.57-1.31 1.01-1.82c.44-.51.99-.91 1.64-1.19s1.4-.43 2.24-.43c.78 0 1.48.13 2.07.38s1.13.61 1.59 1.07l-.5.71zm7.25-2.16c.81 0 1.55.14 2.2.41.65.27 1.21.66 1.67 1.16.46.5.81 1.1 1.06 1.81s.37 1.5.37 2.37c0 .88-.12 1.67-.37 2.38-.25.7-.6 1.31-1.06 1.8-.46.5-1.02.88-1.67 1.15-.65.27-1.39.4-2.2.4-.82 0-1.56-.13-2.22-.4s-1.21-.65-1.68-1.15a5.2 5.2 0 01-1.06-1.8c-.25-.7-.37-1.5-.37-2.38 0-.87.12-1.66.37-2.37s.6-1.31 1.06-1.81c.46-.5 1.02-.88 1.68-1.16.66-.27 1.4-.41 2.22-.41zm0 9.94c1.1 0 1.92-.37 2.46-1.11.54-.74.81-1.77.81-3.08 0-1.33-.27-2.36-.81-3.1-.54-.74-1.37-1.11-2.46-1.11-.56 0-1.04.09-1.46.29-.41.19-.76.47-1.03.83-.28.35-.48.79-.62 1.32-.13.52-.2 1.12-.2 1.78 0 1.32.27 2.35.82 3.08.54.74 1.37 1.1 2.49 1.1zm9.63-8.15c.24-.27.5-.52.77-.74s.56-.41.86-.57c.3-.16.63-.28.97-.36.34-.08.71-.13 1.11-.13.61 0 1.15.1 1.61.3.47.2.85.49 1.17.86.31.37.55.82.71 1.34.16.52.24 1.1.24 1.73v7.09h-1.97V8.95c0-.84-.19-1.5-.58-1.96-.38-.46-.97-.7-1.75-.7-.58 0-1.12.14-1.62.42-.5.28-.97.66-1.39 1.13v8.21h-1.97V4.91h1.18c.28 0 .45.14.52.41l.14 1.2zm12.27 0c.24-.27.5-.52.77-.74s.56-.41.86-.57c.3-.16.63-.28.97-.36.34-.08.71-.13 1.11-.13.61 0 1.15.1 1.61.3.47.2.85.49 1.17.86.31.37.55.82.71 1.34.16.52.24 1.1.24 1.73v7.09h-1.97V8.95c0-.84-.19-1.5-.58-1.96-.38-.46-.97-.7-1.75-.7-.58 0-1.12.14-1.62.42-.5.28-.97.66-1.39 1.13v8.21h-1.97V4.91h1.18c.28 0 .45.14.52.41l.14 1.2zm19.47 7.97c-.24.29-.53.55-.87.76-.34.22-.7.39-1.08.53s-.78.24-1.19.31c-.41.07-.82.1-1.22.1-.77 0-1.48-.13-2.13-.39-.65-.26-1.21-.64-1.68-1.14-.47-.5-.84-1.12-1.11-1.87-.26-.74-.4-1.59-.4-2.55 0-.78.12-1.5.36-2.18s.58-1.26 1.03-1.75.99-.88 1.64-1.17c.64-.28 1.37-.42 2.18-.42.67 0 1.29.11 1.85.33s1.06.55 1.47.97c.41.42.74.94.97 1.56s.35 1.33.35 2.12c0 .31-.03.51-.1.62s-.19.15-.37.15H69.6c.02.7.12 1.32.29 1.84.17.52.41.96.72 1.3.31.35.67.61 1.1.78.42.17.9.26 1.43.26.49 0 .92-.06 1.27-.17.36-.11.66-.24.92-.37s.47-.25.64-.37c.17-.11.32-.17.45-.17.16 0 .29.06.37.19l.55.73zm-1.58-5.23c0-.45-.06-.87-.19-1.25s-.32-.7-.57-.98c-.25-.27-.54-.49-.9-.64-.35-.15-.75-.23-1.2-.23-.94 0-1.68.27-2.23.82-.55.55-.89 1.3-1.02 2.27h6.11zm11.91-2.37c-.06.08-.12.14-.18.19s-.14.07-.24.07c-.11 0-.23-.04-.36-.14-.13-.09-.3-.19-.49-.3-.19-.11-.43-.21-.71-.3s-.63-.14-1.04-.14c-.55 0-1.03.1-1.45.29s-.77.47-1.05.84-.5.81-.64 1.33-.21 1.1-.21 1.75c0 .67.08 1.27.23 1.8.15.52.37.96.65 1.32s.62.63 1.02.81c.4.19.85.28 1.35.28.48 0 .87-.06 1.18-.17.31-.11.56-.24.76-.38.2-.14.37-.27.51-.38.13-.11.27-.17.4-.17.16 0 .29.06.37.19l.55.71c-.24.3-.52.56-.83.77a5.305 5.305 0 01-2.12.84c-.39.07-.78.1-1.19.1-.7 0-1.34-.13-1.94-.38a4.44 4.44 0 01-1.56-1.12c-.44-.49-.79-1.09-1.03-1.8-.25-.71-.37-1.52-.37-2.43 0-.83.12-1.59.35-2.3s.57-1.31 1.01-1.82c.44-.51.99-.91 1.64-1.19.65-.29 1.39-.43 2.24-.43.78 0 1.48.13 2.07.38s1.13.61 1.59 1.07l-.51.71zm6.17 9.33c-.88 0-1.56-.25-2.03-.74s-.71-1.2-.71-2.12V6.54h-1.34c-.12 0-.22-.03-.3-.1-.08-.07-.12-.18-.12-.32v-.79l1.83-.23.45-3.44c.02-.11.07-.2.15-.27s.18-.1.3-.1h.99v3.84h3.22v1.42h-3.22v6.69c0 .47.11.82.34 1.04.23.23.52.34.88.34.21 0 .38-.03.53-.08.15-.05.28-.12.39-.18.11-.07.2-.13.28-.18.08-.06.14-.08.2-.08.1 0 .19.06.27.19l.57.93c-.34.32-.74.56-1.22.74-.46.17-.95.26-1.46.26zM15.8 4.91h1.96v11.14H15.8z"/></svg>