<?xml version="1.0" encoding="utf-8"?>
<!-- Generator: Adobe Illustrator 25.4.1, SVG Export Plug-In . SVG Version: 6.00 Build 0)  -->
<svg version="1.1" id="レイヤー_1" xmlns="http://www.w3.org/2000/svg" xmlns:xlink="http://www.w3.org/1999/xlink" x="0px"
	 y="0px" viewBox="0 0 32 32" enable-background="new 0 0 32 32" xml:space="preserve">
<g>
	<g>
		<path d="M15.68,28.25c1.28,0,2.43-0.22,3.44-0.65c1.01-0.43,1.86-1.04,2.57-1.82c0.7-0.78,1.23-1.71,1.6-2.79
			c0.37-1.08,0.55-2.27,0.55-3.57V9.65h4.18v9.77c0,1.79-0.29,3.45-0.86,4.98c-0.57,1.53-1.39,2.85-2.45,3.97
			c-1.06,1.12-2.36,2-3.89,2.63c-1.53,0.63-3.25,0.95-5.15,0.95c-1.91,0-3.62-0.32-5.15-0.95s-2.83-1.51-3.9-2.63
			c-1.07-1.12-1.89-2.44-2.46-3.97s-0.86-3.19-0.86-4.98V0.55h4.18v18.84c0,1.3,0.18,2.49,0.55,3.57c0.37,1.08,0.9,2.01,1.6,2.79
			c0.7,0.78,1.56,1.39,2.58,1.83C13.24,28.03,14.39,28.25,15.68,28.25z"/>
		<path fill="#00A99D" d="M28.69,2.82c0,0.37-0.08,0.72-0.23,1.05c-0.15,0.32-0.35,0.61-0.61,0.87c-0.25,0.25-0.55,0.45-0.89,0.59
			c-0.34,0.15-0.7,0.22-1.07,0.22c-0.38,0-0.73-0.07-1.05-0.22c-0.32-0.14-0.61-0.34-0.86-0.59c-0.25-0.25-0.44-0.54-0.58-0.87
			s-0.22-0.67-0.22-1.05s0.07-0.73,0.22-1.07c0.14-0.34,0.34-0.63,0.58-0.89c0.25-0.25,0.53-0.45,0.86-0.59
			c0.32-0.14,0.67-0.22,1.05-0.22c0.37,0,0.73,0.07,1.07,0.22s0.64,0.34,0.89,0.59c0.25,0.25,0.46,0.55,0.61,0.89
			C28.61,2.09,28.69,2.45,28.69,2.82z"/>
	</g>
</g>
<g>
</g>
<g>
</g>
<g>
</g>
<g>
</g>
<g>
</g>
<g>
</g>
<g>
</g>
<g>
</g>
<g>
</g>
<g>
</g>
<g>
</g>
<g>
</g>
<g>
</g>
<g>
</g>
<g>
</g>
</svg>
