<?xml version="1.0" encoding="utf-8"?>
<!-- Generator: Adobe Illustrator 25.4.1, SVG Export Plug-In . SVG Version: 6.00 Build 0)  -->
<svg version="1.1" id="レイヤー_1" xmlns="http://www.w3.org/2000/svg" xmlns:xlink="http://www.w3.org/1999/xlink" x="0px"
	 y="0px" viewBox="0 0 96.54 16.24" enable-background="new 0 0 96.54 16.24" xml:space="preserve">
<g>
	<g>
		<path d="M6.28,14.36c0.65,0,1.24-0.11,1.75-0.33c0.51-0.22,0.95-0.53,1.3-0.92c0.36-0.4,0.63-0.87,0.81-1.42
			c0.19-0.55,0.28-1.15,0.28-1.81V0.29h2.12v9.58c0,0.91-0.15,1.75-0.43,2.53c-0.29,0.78-0.7,1.45-1.24,2.02s-1.2,1.01-1.97,1.34
			s-1.65,0.48-2.62,0.48c-0.97,0-1.84-0.16-2.62-0.48s-1.44-0.77-1.98-1.34c-0.54-0.57-0.96-1.24-1.25-2.02S0,10.78,0,9.87V0.29
			h2.12v9.57c0,0.66,0.09,1.26,0.28,1.81c0.19,0.55,0.46,1.02,0.81,1.42c0.36,0.4,0.79,0.71,1.31,0.93
			C5.04,14.24,5.63,14.36,6.28,14.36z"/>
		<path fill="#00A99D" d="M18.17,1.41c0,0.19-0.04,0.37-0.12,0.53c-0.08,0.17-0.18,0.31-0.31,0.44c-0.13,0.13-0.28,0.23-0.45,0.3
			c-0.17,0.07-0.35,0.11-0.54,0.11c-0.19,0-0.37-0.04-0.53-0.11c-0.17-0.07-0.31-0.17-0.43-0.3c-0.12-0.13-0.22-0.28-0.3-0.44
			s-0.11-0.34-0.11-0.53s0.04-0.37,0.11-0.54c0.07-0.17,0.17-0.32,0.3-0.45c0.12-0.13,0.27-0.23,0.43-0.3S16.56,0,16.75,0
			c0.19,0,0.37,0.04,0.54,0.11s0.32,0.17,0.45,0.3c0.13,0.13,0.23,0.28,0.31,0.45C18.13,1.04,18.17,1.22,18.17,1.41z"/>
		<path d="M28.72,6.89c-0.06,0.08-0.12,0.14-0.18,0.19s-0.14,0.07-0.24,0.07c-0.11,0-0.23-0.04-0.36-0.14
			c-0.13-0.09-0.3-0.19-0.49-0.3c-0.19-0.11-0.43-0.21-0.72-0.3s-0.63-0.14-1.04-0.14c-0.55,0-1.03,0.1-1.45,0.29
			s-0.77,0.47-1.05,0.84c-0.28,0.37-0.49,0.81-0.64,1.33c-0.14,0.52-0.21,1.1-0.21,1.75c0,0.67,0.08,1.27,0.23,1.8
			c0.15,0.52,0.37,0.96,0.65,1.32s0.62,0.63,1.02,0.81c0.4,0.19,0.85,0.28,1.35,0.28c0.48,0,0.87-0.06,1.18-0.17
			s0.56-0.24,0.76-0.38c0.2-0.14,0.37-0.27,0.51-0.38c0.14-0.11,0.27-0.17,0.4-0.17c0.16,0,0.29,0.06,0.37,0.19l0.55,0.71
			c-0.24,0.3-0.52,0.56-0.83,0.77c-0.31,0.21-0.64,0.39-1,0.53c-0.36,0.14-0.73,0.25-1.12,0.31c-0.39,0.07-0.78,0.1-1.19,0.1
			c-0.7,0-1.34-0.13-1.94-0.38c-0.6-0.26-1.12-0.63-1.56-1.12c-0.44-0.49-0.78-1.09-1.03-1.8c-0.25-0.71-0.37-1.52-0.37-2.43
			c0-0.83,0.12-1.59,0.35-2.3s0.57-1.31,1.01-1.82c0.44-0.51,0.99-0.91,1.64-1.19s1.4-0.43,2.24-0.43c0.78,0,1.48,0.13,2.07,0.38
			s1.13,0.61,1.59,1.07L28.72,6.89z"/>
		<path d="M35.97,4.73c0.81,0,1.55,0.14,2.2,0.41c0.65,0.27,1.21,0.66,1.67,1.16c0.46,0.5,0.81,1.1,1.06,1.81s0.37,1.5,0.37,2.37
			c0,0.88-0.12,1.67-0.37,2.38c-0.25,0.7-0.6,1.31-1.06,1.8c-0.46,0.5-1.02,0.88-1.67,1.15c-0.65,0.27-1.39,0.4-2.2,0.4
			c-0.82,0-1.56-0.13-2.22-0.4s-1.21-0.65-1.68-1.15c-0.46-0.5-0.81-1.1-1.06-1.8c-0.25-0.7-0.37-1.5-0.37-2.38
			c0-0.87,0.12-1.66,0.37-2.37s0.6-1.31,1.06-1.81c0.46-0.5,1.02-0.88,1.68-1.16C34.41,4.87,35.15,4.73,35.97,4.73z M35.97,14.67
			c1.1,0,1.92-0.37,2.46-1.11c0.54-0.74,0.81-1.77,0.81-3.08c0-1.33-0.27-2.36-0.81-3.1c-0.54-0.74-1.37-1.11-2.46-1.11
			c-0.56,0-1.04,0.09-1.46,0.29c-0.41,0.19-0.76,0.47-1.03,0.83C33.2,7.74,33,8.18,32.86,8.71c-0.13,0.52-0.2,1.12-0.2,1.78
			c0,1.32,0.27,2.35,0.82,3.08C34.02,14.31,34.85,14.67,35.97,14.67z"/>
		<path d="M45.6,6.52c0.24-0.27,0.5-0.52,0.77-0.74s0.56-0.41,0.86-0.57c0.3-0.16,0.63-0.28,0.97-0.36
			c0.34-0.08,0.71-0.13,1.11-0.13c0.61,0,1.15,0.1,1.61,0.3c0.47,0.2,0.85,0.49,1.17,0.86c0.31,0.37,0.55,0.82,0.71,1.34
			c0.16,0.52,0.24,1.1,0.24,1.73v7.09h-1.97V8.95c0-0.84-0.19-1.5-0.58-1.96c-0.38-0.46-0.97-0.7-1.75-0.7
			c-0.58,0-1.12,0.14-1.62,0.42c-0.5,0.28-0.97,0.66-1.39,1.13v8.21h-1.97V4.91h1.18c0.28,0,0.45,0.14,0.52,0.41L45.6,6.52z"/>
		<path d="M57.87,6.52c0.24-0.27,0.5-0.52,0.77-0.74s0.56-0.41,0.86-0.57c0.3-0.16,0.63-0.28,0.97-0.36
			c0.34-0.08,0.71-0.13,1.11-0.13c0.61,0,1.15,0.1,1.61,0.3c0.47,0.2,0.85,0.49,1.17,0.86c0.31,0.37,0.55,0.82,0.71,1.34
			c0.16,0.52,0.24,1.1,0.24,1.73v7.09h-1.97V8.95c0-0.84-0.19-1.5-0.58-1.96c-0.38-0.46-0.97-0.7-1.75-0.7
			c-0.58,0-1.12,0.14-1.62,0.42c-0.5,0.28-0.97,0.66-1.39,1.13v8.21h-1.97V4.91h1.18c0.28,0,0.45,0.14,0.52,0.41L57.87,6.52z"/>
		<path d="M77.34,14.49c-0.24,0.29-0.53,0.55-0.87,0.76c-0.34,0.22-0.7,0.39-1.08,0.53s-0.78,0.24-1.19,0.31
			c-0.41,0.07-0.82,0.1-1.22,0.1c-0.77,0-1.48-0.13-2.13-0.39c-0.65-0.26-1.21-0.64-1.68-1.14c-0.47-0.5-0.84-1.12-1.11-1.87
			c-0.26-0.74-0.4-1.59-0.4-2.55c0-0.78,0.12-1.5,0.36-2.18s0.58-1.26,1.03-1.75s0.99-0.88,1.64-1.17c0.64-0.28,1.37-0.42,2.18-0.42
			c0.67,0,1.29,0.11,1.85,0.33s1.06,0.55,1.47,0.97c0.41,0.42,0.74,0.94,0.97,1.56s0.35,1.33,0.35,2.12c0,0.31-0.03,0.51-0.1,0.62
			s-0.19,0.15-0.37,0.15H69.6c0.02,0.7,0.12,1.32,0.29,1.84c0.17,0.52,0.41,0.96,0.72,1.3c0.31,0.35,0.67,0.61,1.1,0.78
			c0.42,0.17,0.9,0.26,1.43,0.26c0.49,0,0.92-0.06,1.27-0.17c0.36-0.11,0.66-0.24,0.92-0.37s0.47-0.25,0.64-0.37
			c0.17-0.11,0.32-0.17,0.45-0.17c0.16,0,0.29,0.06,0.37,0.19L77.34,14.49z M75.76,9.26c0-0.45-0.06-0.87-0.19-1.25
			S75.25,7.31,75,7.03c-0.25-0.27-0.54-0.49-0.9-0.64c-0.35-0.15-0.75-0.23-1.2-0.23c-0.94,0-1.68,0.27-2.23,0.82
			c-0.55,0.55-0.89,1.3-1.02,2.27H75.76z"/>
		<path d="M87.67,6.89c-0.06,0.08-0.12,0.14-0.18,0.19s-0.14,0.07-0.24,0.07c-0.11,0-0.23-0.04-0.36-0.14
			c-0.13-0.09-0.3-0.19-0.49-0.3c-0.19-0.11-0.43-0.21-0.71-0.3s-0.63-0.14-1.04-0.14c-0.55,0-1.03,0.1-1.45,0.29
			s-0.77,0.47-1.05,0.84c-0.28,0.37-0.5,0.81-0.64,1.33c-0.14,0.52-0.21,1.1-0.21,1.75c0,0.67,0.08,1.27,0.23,1.8
			c0.15,0.52,0.37,0.96,0.65,1.32s0.62,0.63,1.02,0.81c0.4,0.19,0.85,0.28,1.35,0.28c0.48,0,0.87-0.06,1.18-0.17
			c0.31-0.11,0.56-0.24,0.76-0.38c0.2-0.14,0.37-0.27,0.51-0.38c0.13-0.11,0.27-0.17,0.4-0.17c0.16,0,0.29,0.06,0.37,0.19l0.55,0.71
			c-0.24,0.3-0.52,0.56-0.83,0.77c-0.31,0.21-0.64,0.39-1,0.53c-0.36,0.14-0.73,0.25-1.12,0.31c-0.39,0.07-0.78,0.1-1.19,0.1
			c-0.7,0-1.34-0.13-1.94-0.38c-0.6-0.26-1.12-0.63-1.56-1.12c-0.44-0.49-0.79-1.09-1.03-1.8c-0.25-0.71-0.37-1.52-0.37-2.43
			c0-0.83,0.12-1.59,0.35-2.3s0.57-1.31,1.01-1.82c0.44-0.51,0.99-0.91,1.64-1.19c0.65-0.29,1.39-0.43,2.24-0.43
			c0.78,0,1.48,0.13,2.07,0.38s1.13,0.61,1.59,1.07L87.67,6.89z"/>
		<path d="M93.84,16.22c-0.88,0-1.56-0.25-2.03-0.74s-0.71-1.2-0.71-2.12V6.54h-1.34c-0.12,0-0.22-0.03-0.3-0.1
			c-0.08-0.07-0.12-0.18-0.12-0.32V5.33l1.83-0.23l0.45-3.44c0.02-0.11,0.07-0.2,0.15-0.27s0.18-0.1,0.3-0.1h0.99v3.84h3.22v1.42
			h-3.22v6.69c0,0.47,0.11,0.82,0.34,1.04c0.23,0.23,0.52,0.34,0.88,0.34c0.21,0,0.38-0.03,0.53-0.08c0.15-0.05,0.28-0.12,0.39-0.18
			c0.11-0.07,0.2-0.13,0.28-0.18c0.08-0.06,0.14-0.08,0.2-0.08c0.1,0,0.19,0.06,0.27,0.19l0.57,0.93c-0.34,0.32-0.74,0.56-1.22,0.74
			C94.84,16.13,94.35,16.22,93.84,16.22z"/>
	</g>
	<rect x="15.8" y="4.91" width="1.96" height="11.14"/>
</g>
<g>
</g>
<g>
</g>
<g>
</g>
<g>
</g>
<g>
</g>
<g>
</g>
<g>
</g>
<g>
</g>
<g>
</g>
<g>
</g>
<g>
</g>
<g>
</g>
<g>
</g>
<g>
</g>
<g>
</g>
</svg>
